<svg width="30" height="30" viewBox="0 0 30 30" fill="none" xmlns="http://www.w3.org/2000/svg">
<path d="M17.5 19.5837C16.8195 19.86 16.0919 20.0013 15.3575 20C12.3988 20 10 17.7625 10 15C10 12.2375 12.3988 10 15.3575 10C16.12 10 16.8438 10.1488 17.5 10.4163" stroke="#412A56" stroke-width="2.5" stroke-linecap="round"/>
<path d="M8.75 4.17251C10.6494 3.07364 12.8056 2.49663 15 2.50001C21.9037 2.50001 27.5 8.09626 27.5 15C27.5 21.9038 21.9037 27.5 15 27.5C8.09625 27.5 2.5 21.9038 2.5 15C2.5 12.7238 3.10875 10.5875 4.1725 8.75001" stroke="#412A56" stroke-width="2.5" stroke-linecap="round"/>
</svg>
